<?xml version="1.0" standalone="no"?>
<!DOCTYPE svg PUBLIC "-//W3C//DTD SVG 20010904//EN"
 "http://www.w3.org/TR/2001/REC-SVG-20010904/DTD/svg10.dtd">
<svg version="1.0" xmlns="http://www.w3.org/2000/svg"
 width="225.000000pt" height="225.000000pt" viewBox="0 0 225.000000 225.000000"
 preserveAspectRatio="xMidYMid meet">
<metadata>
Created by potrace 1.11, written by Peter Selinger 2001-2013
</metadata>
<g transform="translate(0.000000,225.000000) scale(0.100000,-0.100000)"
fill="#000000" stroke="none">
<path d="M1035 2229 c-108 -26 -115 -29 -115 -54 0 -14 2 -25 4 -25 2 0 32 9
67 19 35 11 79 22 97 26 23 5 32 12 32 26 0 21 -19 23 -85 8z"/>
<path d="M1130 2225 c0 -8 17 -19 43 -25 23 -6 65 -19 92 -28 28 -9 56 -16 63
-15 8 0 22 -6 31 -15 15 -14 118 -92 167 -127 16 -11 34 8 34 37 0 25 -176
138 -203 130 -4 -1 -15 4 -22 12 -16 15 -136 46 -179 46 -16 0 -26 -6 -26 -15z"/>
<path d="M1060 2176 c-25 -7 -64 -19 -88 -26 l-43 -14 6 -50 c4 -28 8 -52 9
-52 0 -1 84 -3 186 -5 l184 -4 7 40 c4 22 9 47 11 55 2 10 -20 22 -72 41 -83
31 -132 34 -200 15z"/>
<path d="M800 2134 c-110 -68 -122 -80 -101 -112 12 -20 208 116 203 141 -5
25 -19 21 -102 -29z"/>
<path d="M1346 2121 c-3 -5 -9 -31 -13 -57 l-6 -47 78 -73 c44 -41 82 -71 86
-66 4 4 16 31 27 60 l20 52 -81 62 c-45 34 -87 65 -94 70 -6 5 -14 5 -17 -1z"/>
<path d="M845 2083 c-27 -20 -69 -52 -92 -70 l-43 -34 20 -39 c11 -22 20 -47
20 -56 0 -15 2 -15 23 -1 12 8 22 19 22 25 0 6 4 14 9 19 5 5 6 3 2 -4 -17
-29 14 -9 67 44 45 45 55 61 51 80 -3 12 -7 34 -8 48 -1 33 -11 31 -71 -12z
m-76 -167 c7 -8 8 -17 3 -20 -6 -3 -12 3 -15 14 -6 24 -4 25 12 6z"/>
<path d="M1559 2013 c-7 -16 -15 -37 -20 -48 -38 -86 -38 -95 -2 -173 19 -41
33 -76 30 -78 -2 -2 -16 23 -31 56 -15 33 -30 60 -34 60 -4 0 -20 -41 -35 -90
l-27 -90 21 -42 c12 -24 33 -60 47 -80 14 -21 22 -41 19 -44 -7 -7 -58 71 -77
117 l-13 30 -42 -88 c-46 -97 -46 -100 14 -165 13 -16 20 -28 14 -28 -13 0
-37 27 -56 65 l-15 29 -51 -79 c-28 -44 -54 -84 -59 -90 -4 -5 -28 -40 -54
-77 -44 -64 -45 -67 -30 -90 9 -12 24 -29 33 -36 10 -7 28 -27 40 -45 18 -27
15 -26 -21 11 -23 24 -44 41 -47 39 -2 -2 4 -26 12 -52 9 -26 15 -49 12 -51
-2 -2 -12 21 -22 51 -11 30 -23 54 -28 52 -5 -1 -21 -35 -37 -74 l-27 -72 51
-6 c77 -10 98 -4 121 32 25 40 40 47 40 18 0 -13 -4 -21 -9 -17 -5 3 -19 -7
-31 -23 -21 -25 -28 -27 -101 -29 l-78 -1 -17 -57 -17 -58 67 -1 c48 -1 59 -3
41 -9 -14 -4 -44 -8 -67 -9 -41 -1 -43 -2 -53 -43 -6 -24 -13 -51 -16 -60 -5
-16 5 -18 108 -20 l113 -2 -114 -5 c-127 -7 -113 2 -134 -82 l-6 -25 160 0
c145 1 160 3 156 18 -3 9 0 15 7 12 6 -2 23 16 39 40 15 24 48 65 73 92 37 40
43 52 35 66 -6 10 -11 21 -11 25 0 5 5 0 11 -10 13 -22 26 -22 34 2 3 10 29
54 59 99 37 57 50 84 42 92 -7 7 -5 10 6 10 10 0 21 14 28 36 7 19 14 33 16
31 2 -2 -3 -23 -11 -47 -10 -30 -12 -47 -5 -54 5 -5 10 -15 10 -21 0 -5 -5 -3
-10 5 -9 13 -14 11 -35 -13 -13 -15 -43 -59 -66 -98 -37 -62 -41 -73 -30 -96
6 -14 10 -28 7 -30 -2 -2 -7 5 -11 16 -3 12 -10 21 -14 21 -13 0 -78 -74 -119
-135 l-41 -61 17 -47 c9 -26 19 -47 22 -47 13 0 82 71 124 129 25 35 46 60 46
57 0 -11 -32 -58 -63 -95 -15 -18 -26 -39 -23 -47 3 -7 0 -11 -7 -9 -7 3 -28
-10 -48 -29 -20 -19 -55 -41 -79 -49 -48 -16 -55 -24 -41 -46 16 -24 83 -2 92
29 5 17 7 19 8 7 1 -21 27 -16 71 12 32 21 90 41 90 31 0 -5 -13 -11 -30 -15
-16 -4 -30 -10 -30 -14 0 -5 -19 -16 -42 -27 -24 -10 -45 -21 -48 -25 -3 -3
-28 -12 -57 -19 -50 -13 -52 -15 -48 -44 l5 -31 -11 31 c-11 31 -11 31 -62 22
-29 -5 -78 -6 -109 -2 l-57 6 -11 -42 c-6 -23 -10 -44 -7 -46 2 -2 39 -7 81
-11 85 -7 257 19 287 44 9 7 18 10 22 7 7 -7 88 37 83 45 -2 3 6 6 17 7 12 0
31 4 42 8 11 4 7 0 -10 -10 -16 -9 -32 -20 -35 -23 -8 -10 -50 -29 -110 -50
-82 -29 -184 -43 -290 -40 l-95 3 -15 -67 c-10 -47 -19 -67 -30 -67 -10 0 -11
3 -3 8 6 4 14 25 18 47 3 22 8 50 10 61 4 19 -1 23 -33 28 -77 13 -74 14 -90
-34 -9 -25 -17 -40 -19 -33 -2 6 3 28 11 48 9 21 16 39 16 41 0 4 -72 37 -80
37 -3 0 -13 8 -23 19 -16 17 -16 19 -1 16 23 -4 50 69 35 94 -8 14 -8 16 4 12
10 -4 17 7 25 36 10 38 9 45 -12 75 -12 19 -25 32 -29 29 -6 -3 -21 -74 -25
-114 0 -8 -6 -26 -11 -40 -6 -14 -13 -32 -16 -40 -4 -12 -6 -11 -6 3 -1 16 -6
15 -48 -9 -109 -60 -133 -131 -69 -202 83 -91 259 -134 542 -131 176 1 316 25
410 69 61 29 123 87 125 118 1 9 2 24 3 32 0 8 -7 25 -16 38 -22 31 -104 93
-112 85 -9 -9 -33 55 -49 136 l-16 74 60 103 c35 60 58 108 53 115 -4 8 -3 9
5 5 17 -11 54 81 54 138 1 34 3 43 9 30 5 -12 6 -4 3 21 -4 31 -3 37 5 25 9
-12 11 -10 7 13 -2 15 -1 27 2 27 10 0 39 161 52 286 6 61 9 188 6 286 l-4
177 -36 75 c-33 69 -108 166 -128 166 -5 0 -14 -12 -20 -27z m62 -165 c17 -35
33 -65 35 -67 1 -2 15 6 30 18 14 11 30 18 35 15 5 -3 -7 -17 -27 -30 -20 -14
-38 -24 -39 -22 -9 10 -74 148 -70 148 2 0 19 -28 36 -62z m-21 -199 c0 -6 -4
-7 -10 -4 -5 3 -10 11 -10 16 0 6 5 7 10 4 6 -3 10 -11 10 -16z m67 -184 c4
-93 1 -135 -12 -184 -27 -103 -113 -259 -136 -245 -5 3 -6 -1 -3 -9 3 -9 -7
-20 -29 -30 -42 -20 -97 -8 -136 31 -14 15 -28 27 -31 27 -3 0 -22 10 -42 22
-45 27 -51 58 -12 67 14 4 77 57 138 119 108 107 171 194 204 282 6 17 17 44
23 60 l11 30 10 -25 c6 -14 13 -79 15 -145z m73 50 c0 -8 -7 -15 -16 -15 -14
0 -14 3 -4 15 7 8 14 15 16 15 2 0 4 -7 4 -15z m-3 -82 c-3 -10 -5 -4 -5 12 0
17 2 24 5 18 2 -7 2 -21 0 -30z m-456 -200 c13 -16 12 -17 -3 -4 -10 7 -18 15
-18 17 0 8 8 3 21 -13z m439 -27 c0 -11 -19 -15 -25 -6 -3 5 1 10 9 10 9 0 16
-2 16 -4z m-430 -371 c-36 -45 -58 -65 -73 -64 l-22 0 21 9 c23 9 116 113 113
126 -3 19 4 28 8 11 3 -11 -15 -42 -47 -82z m147 19 c-12 -26 -35 -61 -51 -78
-15 -17 -48 -56 -73 -87 -34 -44 -49 -56 -64 -52 -19 5 -18 7 8 20 33 18 135
136 170 199 32 58 39 56 10 -2z m193 -11 c0 -5 -5 -15 -10 -23 -8 -12 -10 -11
-10 8 0 12 5 22 10 22 6 0 10 -3 10 -7z m-40 -83 c-6 -11 -13 -20 -16 -20 -2
0 0 9 6 20 6 11 13 20 16 20 2 0 0 -9 -6 -20z m-40 -69 c-23 -45 -36 -56 -46
-40 -4 8 -3 9 4 5 7 -4 19 9 32 34 11 22 23 40 25 40 3 0 -4 -18 -15 -39z
m-833 -373 c-3 -8 -6 -5 -6 6 -1 11 2 17 5 13 3 -3 4 -12 1 -19z m662 -33 c0
-5 -4 -3 -9 5 -5 8 -9 22 -9 30 0 16 17 -16 18 -35z m-625 -79 c-3 -15 -8 -25
-11 -23 -2 3 -1 17 3 31 3 15 8 25 11 23 2 -3 1 -17 -3 -31z m781 -51 c-16
-13 -33 -24 -37 -25 -11 0 26 36 43 43 25 10 24 7 -6 -18z m-795 5 c0 -5 -2
-10 -4 -10 -3 0 -8 5 -11 10 -3 6 -1 10 4 10 6 0 11 -4 11 -10z"/>
<path d="M1481 1141 c-23 -28 -47 -49 -52 -45 -5 3 -9 -2 -9 -11 0 -9 -4 -13
-10 -10 -5 3 -10 -1 -10 -9 0 -45 85 7 114 69 28 58 14 60 -33 6z"/>
<path d="M1360 1095 c-7 -9 -11 -18 -8 -20 3 -3 11 1 18 10 7 9 11 18 8 20 -3
3 -11 -1 -18 -10z"/>
<path d="M632 1991 c-50 -62 -99 -168 -86 -188 6 -9 15 -18 20 -20 14 -4 119
199 116 225 -5 31 -14 28 -50 -17z"/>
<path d="M998 2013 c-47 -4 -47 -4 -41 -36 9 -50 42 -169 49 -176 9 -10 245
-14 255 -4 14 14 49 197 39 207 -9 9 -229 16 -302 9z"/>
<path d="M885 1950 c-28 -28 -67 -62 -87 -77 -21 -14 -35 -30 -32 -35 3 -5 14
-2 23 6 10 9 20 13 23 10 4 -3 17 2 31 11 19 12 27 13 33 4 4 -8 3 -9 -4 -5
-7 4 1 -17 18 -47 24 -45 27 -57 16 -66 -7 -6 -17 -7 -21 -3 -5 4 -5 1 -1 -5
10 -17 -4 -16 -28 2 -18 13 -17 14 12 10 18 -2 34 0 37 5 7 11 -67 10 -82 -1
-8 -7 -15 -4 -22 8 -9 15 -10 12 -5 -12 4 -16 11 -35 16 -42 5 -7 7 -17 3 -23
-8 -14 80 36 116 65 14 11 28 25 31 30 4 6 -1 57 -11 113 l-17 102 -49 -50z
m-25 -54 c0 -2 -12 -11 -27 -20 l-28 -17 24 20 c23 21 31 25 31 17z m37 -38
c-3 -8 -6 -5 -6 6 -1 11 2 17 5 13 3 -3 4 -12 1 -19z m-40 -134 c-3 -3 -12 -4
-19 -1 -8 3 -5 6 6 6 11 1 17 -2 13 -5z"/>
<path d="M1317 1978 c-3 -13 -11 -60 -18 -104 l-12 -82 38 -33 c21 -19 53 -44
71 -57 39 -26 38 -27 74 82 l23 69 -29 21 c-16 11 -53 44 -83 73 -30 29 -55
53 -56 53 -2 0 -5 -10 -8 -22z"/>
<path d="M641 1863 c-44 -82 -52 -102 -46 -131 4 -23 3 -32 -4 -27 -6 3 -11 0
-12 -7 0 -7 -3 -33 -5 -58 -19 -206 -19 -250 -6 -345 8 -55 20 -103 26 -107 8
-6 8 -10 0 -15 -9 -6 -3 -35 18 -103 17 -52 32 -96 33 -98 2 -2 12 2 24 9 11
7 24 9 28 5 4 -5 4 -10 -2 -13 -38 -14 -38 -21 -3 -70 19 -26 41 -59 47 -73
l12 -25 -23 26 c-13 14 -37 43 -55 65 -27 32 -34 36 -42 24 -40 -58 52 -247
194 -396 44 -46 85 -84 91 -84 10 0 34 63 34 89 0 12 -60 95 -124 171 -11 14
3 3 32 -25 29 -27 62 -65 73 -83 24 -38 34 -35 43 13 6 32 2 41 -41 93 -77 93
-80 101 -10 30 66 -68 67 -68 73 -40 3 15 9 41 14 57 6 27 2 36 -40 83 l-46
52 -50 -53 c-58 -61 -94 -109 -118 -155 -10 -19 -20 -31 -23 -29 -7 7 50 105
79 137 75 80 99 118 92 144 -4 16 -2 26 5 26 6 0 11 -7 11 -15 0 -21 13 -19
39 8 13 15 19 30 15 41 -5 12 -1 15 12 14 12 -2 42 21 83 64 l64 68 -27 32
c-14 18 -36 48 -49 65 -26 38 -37 41 -55 13 -7 -11 -17 -20 -23 -20 -6 0 -1
12 10 26 12 15 21 30 21 35 0 10 -93 149 -100 148 -3 0 -18 -18 -33 -40 -16
-23 -31 -39 -34 -36 -3 3 9 26 26 50 l30 44 -44 86 -44 86 -21 -42 c-27 -55
-48 -82 -57 -73 -4 4 1 19 10 34 42 65 60 110 53 136 -4 16 -11 24 -18 20 -6
-4 -8 -3 -4 4 7 11 -25 122 -35 122 -4 0 -20 -31 -35 -70 -29 -69 -53 -96 -39
-42 4 15 7 37 8 49 1 11 4 20 8 18 3 -2 16 16 29 40 22 41 23 46 10 87 -7 24
-16 46 -19 50 -4 4 -30 -36 -60 -89z m-1 -246 c0 -8 23 -61 51 -118 46 -94 61
-115 166 -221 64 -64 129 -122 144 -129 31 -12 38 -39 15 -58 -7 -6 -20 -9
-28 -6 -9 4 -27 -7 -45 -27 -37 -41 -65 -58 -98 -58 -30 0 -25 22 11 38 32 15
30 34 -7 56 -17 10 -46 32 -65 48 -22 20 -34 25 -34 16 0 -22 -43 -16 -63 10
-10 12 -24 22 -31 22 -25 0 -55 133 -56 239 0 85 18 201 31 201 5 0 9 -6 9
-13z m-33 -379 c-3 -7 -5 -2 -5 12 0 14 2 19 5 13 2 -7 2 -19 0 -25z m60 -80
c-3 -8 -6 -5 -6 6 -1 11 2 17 5 13 3 -3 4 -12 1 -19z m143 -283 c19 -36 7 -40
-14 -5 -9 17 -13 30 -8 30 5 0 15 -11 22 -25z"/>
<path d="M880 1125 c0 -12 24 -55 31 -55 13 0 17 24 7 43 -8 15 -38 25 -38 12z"/>
<path d="M780 1804 c0 -8 5 -12 10 -9 6 3 10 10 10 16 0 5 -4 9 -10 9 -5 0
-10 -7 -10 -16z"/>
<path d="M1007 1755 c3 -11 13 -58 22 -105 l16 -85 49 -9 c36 -7 58 -6 89 5
l41 14 17 90 c10 50 18 95 18 100 1 6 -49 10 -129 10 -125 0 -130 -1 -123 -20z"/>
<path d="M526 1733 c-9 -58 -7 -231 3 -238 10 -6 20 74 24 194 2 80 -16 110
-27 44z"/>
<path d="M941 1736 c-18 -18 -50 -42 -72 -51 -21 -10 -39 -24 -39 -32 0 -8 4
-11 10 -8 5 3 7 0 4 -8 -3 -8 11 -48 31 -90 l36 -77 37 19 c20 11 47 30 60 43
l22 24 -28 107 -28 107 -33 -34z"/>
<path d="M1257 1663 l-26 -108 37 -32 c42 -37 70 -49 83 -36 7 7 79 170 79
179 0 1 -25 16 -55 33 -30 17 -59 40 -65 51 -6 11 -14 20 -19 20 -4 0 -20 -48
-34 -107z"/>
<path d="M1050 1540 c0 -4 -8 -10 -17 -14 -10 -3 -32 -16 -49 -28 -18 -13 -39
-28 -49 -33 -16 -10 -15 -13 6 -50 46 -78 91 -135 102 -129 7 4 22 16 33 26
17 15 22 16 27 5 3 -9 -7 -19 -29 -27 -38 -15 -41 -22 -18 -41 8 -7 22 -25 30
-41 12 -24 48 -42 42 -20 -1 4 3 16 9 27 18 35 25 93 11 98 -8 3 -6 6 5 6 9 1
17 9 17 18 0 9 3 14 6 10 3 -3 -2 -37 -11 -75 -10 -39 -16 -75 -13 -82 3 -10
69 73 67 86 0 4 3 10 9 13 12 8 76 100 97 141 14 27 14 34 3 41 -7 5 -16 9
-20 9 -4 0 -23 14 -42 30 -19 17 -37 26 -40 21 -3 -5 -12 -35 -20 -68 -8 -32
-15 -49 -15 -38 0 11 6 44 13 73 8 28 11 52 8 52 -4 0 -23 -5 -44 -10 -23 -7
-51 -7 -77 -1 -23 5 -41 5 -41 1z m9 -53 c0 -21 -1 -21 -9 -2 -12 28 -12 37 0
30 6 -3 10 -16 9 -28z m8 -49 c-3 -8 -6 -5 -6 6 -1 11 2 17 5 13 3 -3 4 -12 1
-19z m120 -60 c-3 -8 -6 -5 -6 6 -1 11 2 17 5 13 3 -3 4 -12 1 -19z"/>
<path d="M524 1378 c10 -133 17 -178 28 -178 7 0 8 18 5 48 -4 26 -9 86 -13
135 -4 48 -11 87 -17 87 -6 0 -7 -34 -3 -92z"/>
<path d="M553 1148 c4 -18 12 -71 18 -118 7 -47 18 -93 24 -102 11 -17 13 -16
23 7 8 18 8 34 -2 67 -8 24 -22 73 -32 111 -19 68 -41 94 -31 35z"/>
<path d="M1057 1025 c-47 -54 -48 -55 -31 -80 9 -14 20 -22 24 -18 9 10 61
146 57 149 -1 2 -24 -22 -50 -51z"/>
<path d="M961 919 l-22 -30 33 -37 c47 -52 49 -52 63 -1 10 43 9 48 -11 73
-29 33 -35 33 -63 -5z"/>
<path d="M1021 522 c-51 -7 -55 -9 -67 -42 -19 -53 -17 -56 28 -75 76 -30 312
-19 334 16 3 6 1 30 -6 55 -11 40 -15 44 -44 44 -17 0 -67 2 -111 4 -44 2
-104 1 -134 -2z"/>
<path d="M831 438 c-10 -29 -9 -34 11 -50 31 -24 53 -22 65 5 10 21 7 27 -22
50 -19 15 -36 27 -38 27 -3 0 -10 -15 -16 -32z"/>
<path d="M924 383 c-8 -30 8 -43 52 -43 22 0 33 5 36 18 4 14 -5 22 -39 34
l-43 16 -6 -25z"/>
<path d="M801 358 c-22 -60 -22 -66 1 -82 40 -28 63 -21 77 25 7 23 11 42 9
44 -7 6 -67 35 -73 35 -3 0 -9 -10 -14 -22z"/>
<path d="M1027 354 c-3 -20 1 -22 55 -28 32 -4 79 -4 103 0 37 5 45 10 45 28
0 20 -5 21 -99 21 -94 1 -100 0 -104 -21z"/>
<path d="M890 290 c-7 -22 -10 -43 -7 -46 4 -4 29 -9 57 -12 44 -4 50 -2 50
14 0 11 3 28 6 40 4 17 -1 22 -34 32 -56 17 -57 16 -72 -28z"/>
</g>
</svg>
